<?xml version="1.0" encoding="UTF-8"?>
<svg xmlns="http://www.w3.org/2000/svg" xmlns:xlink="http://www.w3.org/1999/xlink" viewBox="0 0 50 50" width="50px" height="50px">
<g id="surface152676980">
<path style=" stroke:none;fill-rule:nonzero;fill:rgb(100%,100%,100%);fill-opacity:1;" d="M 32 11 L 37 11 C 37.550781 11 38 10.550781 38 10 L 38 3.261719 C 38 2.738281 37.597656 2.304688 37.074219 2.265625 C 35.484375 2.152344 32.375 2 30.140625 2 C 24 2 20 5.679688 20 12.367188 L 20 19 L 13 19 C 12.449219 19 12 19.449219 12 20 L 12 27 C 12 27.550781 12.449219 28 13 28 L 20 28 L 20 47 C 20 47.550781 20.449219 48 21 48 L 28 48 C 28.550781 48 29 47.550781 29 47 L 29 28 L 36.222656 28 C 36.730469 28 37.160156 27.617188 37.214844 27.109375 L 37.992188 20.109375 C 38.058594 19.519531 37.597656 19 37 19 L 29 19 L 29 14 C 29 12.34375 30.34375 11 32 11 Z M 32 11 "/>
</g>
</svg>
