<?xml version="1.0" encoding="UTF-8"?>
<svg xmlns="http://www.w3.org/2000/svg" xmlns:xlink="http://www.w3.org/1999/xlink" viewBox="0 0 48 48" width="48px" height="48px">
<g id="surface152583598">
<path style=" stroke:none;fill-rule:nonzero;fill:rgb(100%,100%,100%);fill-opacity:1;" d="M 16 6 C 10.484375 6 6 10.484375 6 16 L 6 32 C 6 37.515625 10.484375 42 16 42 L 32 42 C 37.515625 42 42 37.515625 42 32 L 42 16 C 42 10.484375 37.515625 6 32 6 Z M 16 10 L 32 10 C 35.308594 10 38 12.691406 38 16 L 38 32 C 38 35.308594 35.308594 38 32 38 L 16 38 C 12.691406 38 10 35.308594 10 32 L 10 16 C 10 12.691406 12.691406 10 16 10 Z M 34 12 C 32.894531 12 32 12.894531 32 14 C 32 15.105469 32.894531 16 34 16 C 35.105469 16 36 15.105469 36 14 C 36 12.894531 35.105469 12 34 12 Z M 24 14 C 18.484375 14 14 18.484375 14 24 C 14 29.515625 18.484375 34 24 34 C 29.515625 34 34 29.515625 34 24 C 34 18.484375 29.515625 14 24 14 Z M 24 18 C 27.308594 18 30 20.691406 30 24 C 30 27.308594 27.308594 30 24 30 C 20.691406 30 18 27.308594 18 24 C 18 20.691406 20.691406 18 24 18 Z M 24 18 "/>
</g>
</svg>
