<?xml version="1.0" encoding="UTF-8"?>
<svg xmlns="http://www.w3.org/2000/svg" xmlns:xlink="http://www.w3.org/1999/xlink" viewBox="0 0 50 50" width="50px" height="50px">
<g id="surface157303422">
<path style=" stroke:none;fill-rule:nonzero;fill:rgb(100%,100%,100%);fill-opacity:1;" d="M 8 3.011719 C 6.3125 3.011719 4.835938 3.492188 3.753906 4.363281 C 2.671875 5.238281 2.011719 6.535156 2.011719 7.945312 C 2.011719 10.691406 4.46875 12.816406 7.71875 12.941406 C 7.808594 12.972656 7.902344 12.988281 8 12.988281 C 9.753906 12.988281 11.246094 12.472656 12.3125 11.5625 C 13.378906 10.65625 13.988281 9.34375 13.988281 7.945312 C 13.988281 7.929688 13.988281 7.910156 13.988281 7.894531 C 13.832031 5.132812 11.375 3.011719 8 3.011719 Z M 8 4.988281 C 10.609375 4.988281 11.894531 6.269531 12.003906 7.972656 C 12 8.804688 11.675781 9.511719 11.03125 10.0625 C 10.378906 10.621094 9.371094 11.011719 8 11.011719 C 5.398438 11.011719 3.988281 9.597656 3.988281 7.945312 C 3.988281 7.121094 4.328125 6.441406 4.996094 5.902344 C 5.664062 5.363281 6.6875 4.988281 8 4.988281 Z M 3 15 C 2.449219 15 2 15.449219 2 16 L 2 45 C 2 45.550781 2.449219 46 3 46 L 13 46 C 13.550781 46 14 45.550781 14 45 L 14 16 C 14 15.449219 13.550781 15 13 15 Z M 18 15 C 17.449219 15 17 15.449219 17 16 L 17 45 C 17 45.550781 17.449219 46 18 46 L 28 46 C 28.550781 46 29 45.550781 29 45 L 29 28.5 C 29 26.554688 30.554688 25 32.5 25 C 34.445312 25 36 26.554688 36 28.5 L 36 45 C 36 45.550781 36.449219 46 37 46 L 47 46 C 47.550781 46 48 45.550781 48 45 L 48 28 C 48 23.875 46.789062 20.605469 44.746094 18.375 C 42.699219 16.144531 39.847656 15 36.789062 15 C 32.882812 15 30.523438 16.425781 29 17.601562 L 29 16 C 29 15.449219 28.550781 15 28 15 Z M 4 17 L 12 17 L 12 44 L 4 44 Z M 19 17 L 27 17 L 27 19.636719 C 27 20.054688 27.253906 20.425781 27.640625 20.574219 C 28.027344 20.71875 28.46875 20.613281 28.742188 20.308594 C 28.742188 20.308594 31.710938 17 36.785156 17 C 39.359375 17 41.617188 17.921875 43.269531 19.726562 C 44.921875 21.53125 46 24.261719 46 28 L 46 44 L 38 44 L 38 28.5 C 38 28.359375 37.972656 28.21875 37.914062 28.089844 C 37.695312 25.265625 35.378906 23 32.5 23 C 29.472656 23 27 25.472656 27 28.5 L 27 44 L 19 44 Z M 19 17 "/>
</g>
</svg>
